ffmpeg version 4.2.4-1ubuntu0.1 Copyright (c) 2000-2020 the FFmpeg developers
  built with gcc 9 (Ubuntu 9.3.0-10ubuntu2)
  configuration: --prefix=/usr --extra-version=1ubuntu0.1 --toolchain=hardened --libdir=/usr/lib/x86_64-linux-gnu --incdir=/usr/include/x86_64-linux-gnu --arch=amd64 --enable-gpl --disable-stripping --enable-avresample --disable-filter=resample --enable-avisynth --enable-gnutls --enable-ladspa --enable-libaom --enable-libass --enable-libbluray --enable-libbs2b --enable-libcaca --enable-libcdio --enable-libcodec2 --enable-libflite --enable-libfontconfig --enable-libfreetype --enable-libfribidi --enable-libgme --enable-libgsm --enable-libjack --enable-libmp3lame --enable-libmysofa --enable-libopenjpeg --enable-libopenmpt --enable-libopus --enable-libpulse --enable-librsvg --enable-librubberband --enable-libshine --enable-libsnappy --enable-libsoxr --enable-libspeex --enable-libssh --enable-libtheora --enable-libtwolame --enable-libvidstab --enable-libvorbis --enable-libvpx --enable-libwavpack --enable-libwebp --enable-libx265 --enable-libxml2 --enable-libxvid --enable-libzmq --enable-libzvbi --enable-lv2 --enable-omx --enable-openal --enable-opencl --enable-opengl --enable-sdl2 --enable-libdc1394 --enable-libdrm --enable-libiec61883 --enable-nvenc --enable-chromaprint --enable-frei0r --enable-libx264 --enable-shared
  libavutil      56. 31.100 / 56. 31.100
  libavcodec     58. 54.100 / 58. 54.100
  libavformat    58. 29.100 / 58. 29.100
  libavdevice    58.  8.100 / 58.  8.100
  libavfilter     7. 57.100 /  7. 57.100
  libavresample   4.  0.  0 /  4.  0.  0
  libswscale      5.  5.100 /  5.  5.100
  libswresample   3.  5.100 /  3.  5.100
  libpostproc    55.  5.100 / 55.  5.100
Input #0, image2, from './Cubo/Cubo%02d.png':
  Duration: 00:00:04.00, start: 0.000000, bitrate: N/A
    Stream #0:0: Video: png, rgb24(pc), 320x240, 25 fps, 25 tbr, 25 tbn, 25 tbc
Stream mapping:
  Stream #0:0 -> #0:0 (png (native) -> h264 (libx264))
Press [q] to stop, [?] for help
[libx264 @ 0x55c4c591f840] using cpu capabilities: MMX2 SSE2Fast SSSE3 SSE4.2 AVX FMA3 BMI2 AVX2
[libx264 @ 0x55c4c591f840] profile High 4:4:4 Predictive, level 1.3, 4:4:4 8-bit
Output #0, avi, to 'algorithm-change/h264_umh.avi':
  Metadata:
    ISFT            : Lavf58.29.100
    Stream #0:0: Video: h264 (libx264) (H264 / 0x34363248), yuv444p, 320x240, q=-1--1, 25 fps, 25 tbn, 25 tbc
    Metadata:
      encoder         : Lavc58.54.100 libx264
    Side data:
      cpb: bitrate max/min/avg: 0/0/0 buffer size: 0 vbv_delay: -1
frame=  100 fps=0.0 q=-1.0 Lsize=     381kB time=00:00:03.92 bitrate= 797.0kbits/s speed=10.6x    
video:373kB audio:0kB subtitle:0kB other streams:0kB global headers:0kB muxing overhead: 2.127493%
bench: utime=1.220s stime=0.021s rtime=0.371s
bench: maxrss=91984kB
[libx264 @ 0x55c4c591f840] frame I:5     Avg QP:25.33  size:  6144
[libx264 @ 0x55c4c591f840] frame P:24    Avg QP:28.19  size:  4550
[libx264 @ 0x55c4c591f840] frame B:71    Avg QP:29.54  size:  3415
[libx264 @ 0x55c4c591f840] consecutive B-frames:  5.0%  0.0%  3.0% 92.0%
[libx264 @ 0x55c4c591f840] mb I  I16..4: 20.1%  0.0% 79.9%
[libx264 @ 0x55c4c591f840] mb P  I16..4: 12.5%  0.0% 45.6%  P16..4: 12.8% 15.3% 11.4%  0.0%  0.0%    skip: 2.3%
[libx264 @ 0x55c4c591f840] mb B  I16..4:  2.6%  0.0% 19.8%  B16..8: 27.4% 24.8%  9.9%  direct: 5.1%  skip:10.3%  L0:41.7% L1:42.7% BI:15.6%
[libx264 @ 0x55c4c591f840] coded y,u,v intra: 73.5% 58.2% 61.1% inter: 36.8% 11.5% 15.6%
[libx264 @ 0x55c4c591f840] i16 v,h,dc,p: 20% 35% 19% 27%
[libx264 @ 0x55c4c591f840] i4 v,h,dc,ddl,ddr,vr,hd,vl,hu: 25% 12% 19%  8%  7%  8%  5% 12%  4%
[libx264 @ 0x55c4c591f840] Weighted P-Frames: Y:0.0% UV:0.0%
[libx264 @ 0x55c4c591f840] ref P L0: 47.5%  9.1% 23.6% 19.8%
[libx264 @ 0x55c4c591f840] ref B L0: 87.9%  8.9%  3.2%
[libx264 @ 0x55c4c591f840] ref B L1: 94.5%  5.5%
[libx264 @ 0x55c4c591f840] kb/s:764.75
